<?xml version="1.0" standalone="no"?>
<!DOCTYPE svg PUBLIC "-//W3C//DTD SVG 20010904//EN"
 "http://www.w3.org/TR/2001/REC-SVG-20010904/DTD/svg10.dtd">
<svg version="1.0" xmlns="http://www.w3.org/2000/svg"
 width="50.000000pt" height="50.000000pt" viewBox="0 0 50.000000 50.000000"
 preserveAspectRatio="xMidYMid meet">

<g transform="translate(0.000000,50.000000) scale(0.100000,-0.100000)"
fill="#FFFFFF" stroke="none">
<path d="M170 425 c-11 -21 -20 -25 -61 -25 -43 0 -49 -3 -63 -32 -11 -21 -16
-59 -16 -120 0 -114 13 -138 75 -138 40 0 44 -2 47 -27 l3 -28 155 0 155 0 0
70 0 70 -117 3 -118 3 0 68 c0 66 -20 131 -40 131 -5 0 -7 7 -4 15 4 9 19 15
40 15 19 0 34 5 34 10 0 6 -17 10 -38 10 -31 0 -41 -5 -52 -25z m20 -60 c0
-11 -11 -15 -40 -15 -22 0 -40 -4 -40 -10 0 -5 23 -10 50 -10 l50 0 0 -65 c0
-63 -1 -65 -25 -65 -14 0 -28 -7 -31 -15 -4 -8 -15 -15 -25 -15 -10 0 -19 -4
-19 -10 0 -5 9 -10 20 -10 11 0 20 -4 20 -10 0 -5 -18 -10 -40 -10 -22 0 -40
5 -40 10 0 6 5 10 10 10 6 0 10 5 10 10 0 6 -9 10 -20 10 -18 0 -20 7 -20 80
0 73 2 80 20 80 11 0 20 5 20 10 0 6 -4 10 -10 10 -5 0 -10 7 -10 15 0 12 13
15 60 15 47 0 60 -3 60 -15z m260 -195 c0 -6 -53 -10 -140 -10 -87 0 -140 4
-140 10 0 6 53 10 140 10 87 0 140 -4 140 -10z m0 -40 c0 -11 -5 -11 -120 -14
-41 0 -81 -5 -88 -10 -8 -5 -18 -4 -25 3 -6 6 -19 11 -29 11 -10 0 -18 5 -18
10 0 6 53 10 140 10 87 0 140 -4 140 -10z m-243 -41 c8 -8 24 -8 60 -1 70 16
183 13 183 -4 0 -11 -28 -14 -140 -14 -118 0 -140 2 -140 15 0 18 21 20 37 4z"/>
</g>
</svg>
