<?xml version="1.0" standalone="no"?>
<!DOCTYPE svg PUBLIC "-//W3C//DTD SVG 20010904//EN"
 "http://www.w3.org/TR/2001/REC-SVG-20010904/DTD/svg10.dtd">
<svg version="1.0" xmlns="http://www.w3.org/2000/svg"
 width="50.000000pt" height="50.000000pt" viewBox="0 0 50.000000 50.000000"
 preserveAspectRatio="xMidYMid meet">

<g transform="translate(0.000000,50.000000) scale(0.100000,-0.100000)"
fill="#FFFFFF" stroke="none">
<path d="M155 476 c-27 -13 -64 -39 -82 -57 -31 -33 -69 -106 -60 -116 3 -2
10 10 16 28 26 74 104 140 184 154 29 6 37 4 37 -8 0 -9 -17 -19 -47 -26 -65
-17 -140 -91 -149 -149 -5 -32 -11 -42 -28 -44 -17 -2 -20 -9 -18 -33 5 -54
24 -97 60 -137 35 -38 98 -78 124 -78 7 0 -5 9 -27 19 -82 37 -145 117 -145
184 0 44 27 33 34 -15 9 -58 83 -132 149 -149 36 -9 47 -16 47 -31 0 -18 4
-20 41 -14 23 4 55 14 73 22 33 17 96 73 96 86 0 4 -34 30 -75 58 -41 28 -75
47 -75 43 0 -4 23 -23 50 -41 28 -17 50 -36 50 -42 0 -21 -104 -80 -141 -80
-5 0 -9 101 -9 225 l0 225 -27 0 c-16 0 -50 -11 -78 -24z m95 -121 l0 -95 -95
0 c-89 0 -95 1 -95 20 0 56 66 134 135 158 55 19 55 19 55 -83z m0 -210 c0
-52 -4 -95 -9 -95 -21 0 -79 25 -109 47 -35 26 -72 89 -72 123 0 19 6 20 95
20 l95 0 0 -95z m200 -35 c0 -11 -56 -57 -89 -75 -15 -7 -43 -16 -64 -20 -29
-6 -37 -4 -37 8 0 9 17 19 45 26 26 7 62 26 83 45 32 30 62 38 62 16z"/>
<path d="M211 384 c0 -11 3 -14 6 -6 3 7 2 16 -1 19 -3 4 -6 -2 -5 -13z"/>
<path d="M154 345 c-7 -18 3 -35 22 -35 8 0 14 10 14 25 0 27 -27 35 -36 10z
m26 -11 c0 -8 -5 -12 -10 -9 -6 4 -8 11 -5 16 9 14 15 11 15 -7z"/>
<path d="M120 290 c0 -5 5 -10 10 -10 6 0 10 5 10 10 0 6 -4 10 -10 10 -5 0
-10 -4 -10 -10z"/>
<path d="M221 214 c0 -11 3 -14 6 -6 3 7 2 16 -1 19 -3 4 -6 -2 -5 -13z"/>
<path d="M117 194 c-15 -15 -7 -45 11 -42 9 2 17 12 17 22 0 20 -16 31 -28 20z
m23 -25 c0 -5 -4 -9 -10 -9 -5 0 -10 7 -10 16 0 8 5 12 10 9 6 -3 10 -10 10
-16z"/>
<path d="M181 174 c0 -11 3 -14 6 -6 3 7 2 16 -1 19 -3 4 -6 -2 -5 -13z"/>
<path d="M197 124 c-16 -16 -7 -44 14 -44 15 0 20 5 17 22 -3 22 -19 33 -31
22z m23 -24 c0 -5 -4 -10 -10 -10 -5 0 -10 5 -10 10 0 6 5 10 10 10 6 0 10 -4
10 -10z"/>
<path d="M306 418 c-28 -123 -30 -148 -15 -148 8 0 19 -10 24 -22 13 -30 39
-29 43 0 5 31 26 22 32 -14 8 -45 34 -37 38 11 4 46 17 65 43 65 57 0 -23 121
-108 164 -18 9 -34 16 -36 16 -3 0 -12 -33 -21 -72z m102 15 c27 -20 72 -88
72 -108 0 -18 -29 2 -55 38 -17 23 -47 53 -67 66 -22 14 -34 29 -31 37 6 16
27 7 81 -33z m-31 -29 c41 -31 69 -82 54 -97 -6 -6 -11 -28 -11 -49 0 -44 -17
-52 -22 -10 -4 35 -41 39 -46 5 -3 -22 -22 -33 -22 -13 0 6 -9 19 -21 31 -19
19 -20 25 -9 72 23 102 23 102 77 61z"/>
<path d="M341 374 c0 -11 3 -14 6 -6 3 7 2 16 -1 19 -3 4 -6 -2 -5 -13z"/>
<path d="M374 346 c-7 -19 3 -36 22 -36 10 0 14 8 12 22 -4 26 -26 36 -34 14z
m26 -11 c0 -8 -4 -15 -10 -15 -5 0 -10 7 -10 15 0 8 5 15 10 15 6 0 10 -7 10
-15z"/>
<path d="M285 141 c-3 -5 -2 -12 3 -15 5 -3 9 1 9 9 0 17 -3 19 -12 6z"/>
<path d="M332 128 c2 -12 10 -23 18 -23 22 0 19 39 -3 43 -15 3 -18 -1 -15
-20z m28 3 c0 -6 -4 -13 -10 -16 -5 -3 -10 1 -10 9 0 9 5 16 10 16 6 0 10 -4
10 -9z"/>
</g>
</svg>
