<?xml version="1.0" standalone="no"?>
<!DOCTYPE svg PUBLIC "-//W3C//DTD SVG 20010904//EN"
 "http://www.w3.org/TR/2001/REC-SVG-20010904/DTD/svg10.dtd">
<svg version="1.0" xmlns="http://www.w3.org/2000/svg"
 width="50.000000pt" height="50.000000pt" viewBox="0 0 50.000000 50.000000"
 preserveAspectRatio="xMidYMid meet">

<g transform="translate(0.000000,50.000000) scale(0.100000,-0.100000)"
fill="#FFFFFF" stroke="none">
<path d="M195 445 l-130 -53 -23 -127 -24 -128 68 -68 c38 -38 73 -69 79 -69
11 0 315 344 315 357 0 12 -134 143 -145 142 -6 0 -68 -25 -140 -54z m99 3
c-11 -13 -69 -78 -128 -146 -60 -68 -111 -121 -113 -118 -3 3 2 47 11 99 l17
94 112 46 c62 26 114 46 116 47 3 0 -4 -10 -15 -22z m76 -17 c0 -16 -56 -68
-113 -104 -15 -10 -37 -37 -49 -61 -11 -24 -33 -51 -48 -60 -15 -8 -35 -34
-44 -56 -16 -42 -35 -50 -56 -26 -9 12 15 45 135 181 119 134 150 164 161 154
8 -6 14 -19 14 -28z m19 -54 c-14 -12 -33 -36 -43 -52 -10 -17 -38 -45 -63
-64 -30 -24 -53 -52 -68 -88 -13 -29 -29 -53 -35 -53 -6 0 -23 -12 -37 -26
-19 -19 -28 -23 -37 -14 -8 8 -8 13 0 18 7 4 19 24 27 44 9 21 27 43 41 50 14
6 35 31 47 55 12 25 37 54 58 68 20 13 54 41 76 62 22 21 44 35 49 31 5 -4 -1
-18 -15 -31z m46 -49 c-115 -136 -270 -306 -277 -302 -19 12 -6 43 28 63 24
15 41 36 55 69 14 34 35 60 70 87 27 20 49 40 49 44 0 4 16 26 36 50 29 33 39
39 50 30 12 -9 10 -16 -11 -41z"/>
<path d="M210 410 c0 -5 5 -10 10 -10 6 0 10 5 10 10 0 6 -4 10 -10 10 -5 0
-10 -4 -10 -10z"/>
<path d="M150 380 c0 -5 5 -10 10 -10 6 0 10 5 10 10 0 6 -4 10 -10 10 -5 0
-10 -4 -10 -10z"/>
<path d="M100 350 c0 -5 5 -10 10 -10 6 0 10 5 10 10 0 6 -4 10 -10 10 -5 0
-10 -4 -10 -10z"/>
<path d="M140 330 c0 -5 5 -10 10 -10 6 0 10 5 10 10 0 6 -4 10 -10 10 -5 0
-10 -4 -10 -10z"/>
<path d="M80 270 c0 -5 5 -10 10 -10 6 0 10 5 10 10 0 6 -4 10 -10 10 -5 0
-10 -4 -10 -10z"/>
</g>
</svg>
