<?xml version="1.0" standalone="no"?>
<!DOCTYPE svg PUBLIC "-//W3C//DTD SVG 20010904//EN"
 "http://www.w3.org/TR/2001/REC-SVG-20010904/DTD/svg10.dtd">
<svg version="1.0" xmlns="http://www.w3.org/2000/svg"
 width="50.000000pt" height="50.000000pt" viewBox="0 0 50.000000 50.000000"
 preserveAspectRatio="xMidYMid meet">

<g transform="translate(0.000000,50.000000) scale(0.100000,-0.100000)"
fill="#FFFFFF" stroke="none">
<path d="M218 489 c-27 -15 -64 -86 -88 -167 -17 -57 -34 -87 -72 -130 -71
-82 -77 -137 -17 -168 105 -54 296 -8 401 97 76 76 75 148 -3 211 -20 16 -40
40 -43 53 -19 75 -123 136 -178 104z m106 -34 c14 -9 35 -37 47 -63 13 -25 42
-64 66 -87 50 -49 56 -83 20 -136 -70 -104 -269 -176 -381 -137 -74 25 -73 66
3 153 33 37 53 71 60 103 15 58 56 150 79 175 20 22 65 18 106 -8z"/>
<path d="M212 425 c-11 -14 -28 -58 -37 -97 -22 -91 -37 -122 -86 -175 -68
-74 -45 -97 90 -91 73 2 97 8 153 36 126 62 152 132 78 210 -22 22 -40 47 -40
54 0 19 -48 68 -77 79 -39 15 -60 11 -81 -16z m89 -11 c18 -9 38 -32 48 -54 9
-21 31 -52 49 -68 71 -67 20 -149 -123 -197 -55 -18 -182 -22 -198 -6 -7 7 3
25 31 54 52 57 67 88 82 164 14 70 42 123 65 123 9 0 30 -7 46 -16z"/>
<path d="M242 378 c-16 -16 -15 -53 3 -68 20 -17 54 -3 61 26 11 42 -34 72
-64 42z m45 -24 c8 -21 -13 -42 -28 -27 -13 13 -5 43 11 43 6 0 13 -7 17 -16z"/>
<path d="M277 229 c-42 -17 -75 -35 -72 -39 3 -5 36 3 73 17 37 14 75 28 85
30 19 6 23 23 5 22 -7 0 -48 -14 -91 -30z"/>
<path d="M270 173 c-104 -39 -106 -40 -97 -49 8 -9 207 66 207 77 0 13 -6 12
-110 -28z"/>
</g>
</svg>
